PathFileType	4	(X/Y/Z)	C:\Users\WrightLab\Desktop\Jo\P5V27.trc
DataRate	CameraRate	NumFrames	NumMarkers	Units	OrigDataRate	OrigDataStartFrame	OrigNumFrames
100.00	100.00	       13	19	mm	100.00	1	       819
Frame#	Time	Headset_Front			Headset_Back			Headset_Left			Headset_Right			Left_Shoulder			Right_Shoulder			Sternum			C7			Left Elbow			Right Elbow			Left Wrist			Right Wrist			Left ASIS			Right ASIS			S2			Left Knee			Right Knee			Left Ankle			Right Ankle			
		X1	Y1	Z1	X2	Y2	Z2	X3	Y3	Z3	X4	Y4	Z4	X5	Y5	Z5	X6	Y6	Z6	X7	Y7	Z7	X8	Y8	Z8	X9	Y9	Z9	X10	Y10	Z10	X11	Y11	Z11	X12	Y12	Z12	X13	Y13	Z13	X14	Y14	Z14	X15	Y15	Z15	X16	Y16	Z16	X17	Y17	Z17	X18	Y18	Z18	X19	Y19	Z19	

1	0.000																												-562.74634	1170.10046	-1156.91809	10.05862	967.77960	-1128.18152	-514.67065	1028.72388	-963.56281	-120.04873	918.24982	-1100.26953	-390.48428	936.49799	-1077.34192				-87.22614	474.71954	-1152.70056	-460.43948	475.20035	-1128.67517	-170.14763	66.05254	-1283.52576				
2	0.010																												-562.53571	1169.85596	-1156.91370	10.58122	967.86157	-1128.11218	-514.69250	1028.78809	-965.11188	-120.03036	918.25903	-1100.25732	-390.47211	936.47162	-1077.32629				-87.05629	474.99194	-1152.00696	-460.42673	475.17795	-1128.66956	-168.84525	67.51318	-1282.14465				
3	0.020																												-562.62927	1169.96021	-1156.90271	9.97784	968.89014	-1129.37988	-514.57074	1028.61707	-964.92639	-119.96236	918.27460	-1100.21130	-390.41782	936.49921	-1077.26331				-87.25272	475.02863	-1151.21912	-460.62659	475.82452	-1128.53125	-168.84525	67.51318	-1282.14465				
4	0.030																												-562.48743	1169.64563	-1156.83362	10.22528	969.03339	-1129.21155	-514.43475	1028.31250	-965.50543	-119.92728	918.27216	-1100.18726	-390.08804	936.29108	-1077.08289				-87.32111	474.75790	-1150.98230	-460.62012	475.79800	-1128.52612	-168.84525	67.51318	-1282.14465				
5	0.040																												-562.52820	1169.54102	-1157.01660	11.63874	967.56067	-1126.57507	-514.56842	1028.41296	-965.79541	-119.91354	917.61603	-1099.49805	-390.04858	936.30078	-1077.03650				-86.75597	474.22345	-1151.27112	-460.37106	475.37552	-1128.46436	-168.84525	67.51318	-1282.14465				
6	0.050																												-562.54236	1169.45593	-1157.04919	11.78737	967.62610	-1126.29626	-514.25293	1028.15186	-965.74542	-119.82015	917.63159	-1099.43469	-390.03195	936.27081	-1077.01550				-86.59731	474.76053	-1150.14258	-460.37372	475.38708	-1128.46667	-168.84525	67.51318	-1282.14465				
7	0.060																												-562.56506	1169.39502	-1157.08813	12.06845	967.34955	-1125.36169	-514.64679	1028.33557	-965.79510	-119.71186	917.71259	-1098.15686	-390.00122	936.23846	-1076.97778				-86.19310	474.39920	-1149.12024	-460.45612	475.16681	-1128.67261	-168.84525	67.51318	-1282.14465				
8	0.070																												-562.43732	1168.97778	-1156.80176	12.22864	967.43781	-1125.04407	-514.53076	1028.12463	-964.18365	-119.63013	917.72198	-1098.10132	-389.98184	936.22363	-1076.95422				-85.92165	474.26923	-1148.71924	-460.92429	475.52145	-1128.64185	-168.84525	67.51318	-1282.14465				
9	0.080																												-562.36176	1169.09912	-1157.04761	12.37385	967.54510	-1124.72083	-514.43597	1027.98877	-965.85669	-119.48772	918.12616	-1097.22620	-389.97083	936.17908	-1076.93921				-85.70818	474.33475	-1148.61462	-460.92630	475.53085	-1128.64355	-168.84525	67.51318	-1282.14465				
10	0.090																												-562.32715	1168.64404	-1156.74414	12.53280	967.62665	-1124.35217	-514.63641	1027.73853	-964.01532	-119.41040	917.95795	-1096.26025	-389.97040	936.13831	-1076.93689				-85.25829	474.30493	-1148.37207	-460.75616	475.05997	-1128.29089	-168.84525	67.51318	-1282.14465				
11	0.100																												-562.39362	1168.53064	-1156.67395	12.69312	967.67908	-1124.05298	-514.61627	1027.71729	-964.00311	-119.28556	917.96185	-1096.17505	-389.94800	936.15070	-1076.91089				-84.50555	474.39529	-1147.51904	-460.74478	475.03873	-1128.28564	-168.84525	67.51318	-1282.14465				
12	0.110																												-562.53290	1168.34863	-1156.51770	12.82641	967.71484	-1123.63550	-514.78558	1027.56116	-964.17926	-119.25412	917.94171	-1096.15283	-389.95471	936.11731	-1076.91736				-84.03095	474.70230	-1147.26868	-460.73907	475.03577	-1128.28430	-168.84525	67.51318	-1282.14465				
13	0.120																												-562.57056	1168.28113	-1156.48499	12.96731	967.78271	-1123.30786	-515.05542	1027.29175	-964.40033	-119.19919	917.95813	-1096.11584	-389.92340	936.12158	-1076.88049				-83.82646	474.33405	-1147.12061	-460.65662	475.11954	-1127.98694	-168.84525	67.51318	-1282.14465				
